<svg width="392" height="522" viewBox="0 0 392 522" fill="none" xmlns="http://www.w3.org/2000/svg">
<path d="M164.398 488.147C25.7378 284.438 0 263.532 0 188.666C0 86.1156 82.0337 2.98291 183.228 2.98291C284.422 2.98291 366.456 86.1156 366.456 188.666C366.456 263.532 340.718 284.438 202.059 488.147C192.959 501.468 173.496 501.467 164.398 488.147ZM262.9 142.729C305.064 142.729 259.573 231.395 259.573 188.666C259.573 145.936 148.86 276.672 164.398 157.719C232.839 154.334 259.573 145.936 259.573 188.666C259.573 231.395 220.736 142.729 262.9 142.729Z" fill="#B51EFF"/>
<path d="M222.123 190.287L156.484 172.513C148.887 170.488 143.599 163.906 143.599 156.594C143.599 147.425 151.622 140 161.529 140H201.824C209.239 140 216.532 142.081 222.609 145.906C226.317 148.213 231.301 147.65 234.461 144.781L255.611 125.656C259.926 121.775 259.319 115.306 254.517 111.875C239.627 101.075 221.029 95.0563 201.945 95V68C201.945 63.05 197.569 59 192.221 59H172.772C167.424 59 163.048 63.05 163.048 68V95H161.529C122.814 95 91.6959 125.769 95.2817 162.275C97.8344 188.206 119.228 209.3 146.213 216.613L208.509 233.488C216.106 235.569 221.394 242.094 221.394 249.406C221.394 258.575 213.371 266 203.465 266H163.17C155.755 266 148.462 263.919 142.384 260.094C138.676 257.788 133.693 258.35 130.532 261.219L109.382 280.344C105.067 284.225 105.675 290.694 110.476 294.125C125.366 304.925 143.964 310.944 163.048 311V338C163.048 342.95 167.424 347 172.772 347H192.221C197.569 347 201.945 342.95 201.945 338V310.887C230.267 310.381 256.827 294.8 266.187 269.994C279.254 235.344 257.313 199.794 222.123 190.287Z" fill="white"/>
</svg>
