<svg width="392" height="522" viewBox="0 0 392 522" fill="none" xmlns="http://www.w3.org/2000/svg">
<path d="M164.398 488.147C25.7378 284.438 0 263.532 0 188.666C0 86.1156 82.0337 2.98291 183.228 2.98291C284.422 2.98291 366.456 86.1156 366.456 188.666C366.456 263.532 340.718 284.438 202.059 488.147C192.959 501.468 173.496 501.467 164.398 488.147ZM262.9 142.729C305.064 142.729 259.573 231.395 259.573 188.666C259.573 145.936 148.86 276.672 164.398 157.719C232.839 154.334 259.573 145.936 259.573 188.666C259.573 231.395 220.736 142.729 262.9 142.729Z" fill="#B51EFF"/>
<path d="M200.353 105.394C159.273 105.394 123.398 127.517 103.432 146.446L63.557 119.766C58.0185 116.058 49.7495 120.008 51.1649 125.688L62.2054 170.023L51.1604 214.362C49.7449 220.041 58.0139 223.988 63.5524 220.284L103.427 193.604C123.394 212.528 159.273 234.651 200.353 234.651C263.117 234.651 314 182.949 314 170.023C314 157.097 263.117 105.394 200.353 105.394ZM240.273 179.717C234.223 179.717 229.315 175.375 229.315 170.023C229.315 164.667 234.223 160.329 240.273 160.329C246.328 160.329 251.232 164.667 251.232 170.023C251.232 175.375 246.323 179.717 240.273 179.717Z" fill="white"/>
</svg>
