<svg id="Capa_1" enable-background="new 0 0 512.002 512.002" height="512" viewBox="0 0 512.002 512.002" width="512" xmlns="http://www.w3.org/2000/svg"><path d="m241.001 121.001c-2.117 0-4.199.309-6.281.606 3.961 9.263 6.281 19.206 6.281 29.394 0 10.19-2.322 20.134-6.284 29.399 2.082.293 4.164.601 6.284.601 22.852 0 44.136-18.516 55.137-30.029-10.972-11.514-32.139-29.971-55.137-29.971z"/><path d="m185.864 151.03c5.068 5.319 12.374 12.076 20.969 17.853 2.477-5.662 4.167-11.633 4.167-17.882 0-6.229-1.675-12.182-4.136-17.827-8.596 5.786-15.924 12.544-21 17.856z"/><path d="m256.001 391.001c4.556 0 8.862-2.065 11.704-5.625l105.454-140.698c21.489-26.836 32.842-59.238 32.842-93.677 0-82.705-67.295-151-150-151s-150 68.295-150 151c0 34.438 11.353 66.841 32.842 93.677l105.454 140.698c2.841 3.559 7.148 5.625 11.704 5.625zm-102.027-231.035c-3.97-5.317-3.97-12.612 0-17.93 1.553-2.095 38.628-51.035 87.026-51.035 33.327 0 60.958 23.005 75.646 38.143l18.748-18.748c5.859-5.859 15.352-5.859 21.211 0s5.859 15.352 0 21.211l-19.395 19.395 19.395 19.395c5.859 5.859 5.859 15.352 0 21.211s-15.352 5.859-21.211 0l-18.748-18.748c-14.689 15.137-42.319 38.143-75.646 38.143-48.398-.002-85.473-48.943-87.026-51.037z"/><path d="m60.777 311.255-26.581 79.746h34.594l26.605-25.605c2.813-2.813 6.621-4.395 10.605-4.395h23.789l33.585-33.585-19.803-26.415h-68.57c-6.46 0-12.188 4.131-14.224 10.254z"/><path d="m487.807 421.001h-44.595l-25.605 25.605c-2.813 2.813-7.621 4.395-11.605 4.395h-22.969l-53.538 61h167.507c4.819 0 9.346-2.314 12.173-6.226 2.813-3.911 3.589-8.95 2.051-13.521z"/><path d="m.777 492.255c-1.538 4.57-.762 9.609 2.051 13.521 2.827 3.911 7.354 6.226 12.173 6.226h274.268l75.203-85.609c2.856-3.413 7.075-5.391 11.528-5.391h23.789l26.605-25.605c2.813-2.813 6.621-4.395 10.605-4.395h40.805l-26.581-79.746c-2.036-6.123-7.764-10.254-14.224-10.254h-68.577l-67.445 90h15.022c8.291 0 15 6.709 15 15s-6.709 15-15 15h-120c-8.291 0-15-6.709-15-15s6.709-15 15-15h15.04l-29.491-39.338-34.944 34.944c-2.813 2.813-6.621 4.395-10.605 4.395h-23.789l-26.605 25.605c-2.813 2.813-6.621 4.395-10.605 4.395h-50.806z"/></svg>