<svg width="392" height="525" viewBox="0 0 392 525" fill="none" xmlns="http://www.w3.org/2000/svg">
<path d="M164.398 490.952C25.7378 286.073 0 265.046 0 189.75C0 86.6105 82.0337 3 183.228 3C284.422 3 366.456 86.6105 366.456 189.75C366.456 265.046 340.718 286.073 202.059 490.952C192.959 504.35 173.496 504.349 164.398 490.952ZM262.9 143.549C305.064 143.549 259.573 232.725 259.573 189.75C259.573 146.775 148.86 278.262 164.398 158.625C232.839 155.221 259.573 146.775 259.573 189.75C259.573 232.725 220.736 143.549 262.9 143.549Z" fill="#5B1594"/>
<path d="M203.302 103C157.112 103 116.774 127.475 94.3228 148.416L49.4876 118.9C43.26 114.798 33.9623 119.168 35.5539 125.451L47.9679 174.5L35.5487 223.553C33.9572 229.837 43.2549 234.202 49.4824 230.105L94.3177 200.589C116.769 221.525 157.112 246 203.302 246C273.874 246 331.088 188.8 331.088 174.5C331.088 160.2 273.874 103 203.302 103ZM248.189 185.225C241.386 185.225 235.867 180.421 235.867 174.5C235.867 168.574 241.386 163.775 248.189 163.775C254.997 163.775 260.511 168.574 260.511 174.5C260.511 180.421 254.991 185.225 248.189 185.225Z" fill="white"/>
</svg>
