<svg id="Capa_1" enable-background="new 0 0 512 512" height="512" viewBox="0 0 512 512" width="512" xmlns="http://www.w3.org/2000/svg"><path d="m63.767 448.234c-1.046 16.604 4.764 33.56 17.422 46.218 23.399 23.399 61.454 23.399 84.853 0l31.82-31.82c4.288-4.288 5.583-10.741 3.252-16.344-2.311-5.645-7.789-9.261-13.859-9.261h-42.425c-8.287 0-15 6.713-15 14.998 0 8.287 6.713 14.976 15 14.976h6.215l-6.215 6.238c-11.695 11.693-30.732 11.693-42.427 0-11.695-11.695-11.695-30.732 0-42.427l55.122-55.122c14.584 6.89 32.073 5.577 45.493-4.092-13.407-6.713-26.012-14.976-36.824-25.789s-19.076-23.417-25.789-36.824c-9.67 13.42-10.983 30.908-4.092 45.493l-55.122 55.122c-11.695 11.695-30.732 11.695-42.427 0-11.693-11.695-11.693-30.732 0-42.427l6.236-6.217v6.215c0 8.287 6.689 15 14.976 15 8.286 0 14.998-6.713 14.998-15v-42.426c0-6.05-3.625-11.517-9.261-13.859-5.603-2.331-12.056-1.036-16.344 3.252l-31.82 31.82c-23.399 23.399-23.399 61.454 0 84.853 12.658 12.658 29.614 18.468 46.218 17.423z"/><path d="m399.537 303.382c3.582-3.58 6.931-7.288 10.168-11.047l-190.04-190.04c-3.759 3.237-7.467 6.586-11.047 10.168-3.58 3.58-6.929 7.286-10.168 11.045l190.042 190.042c3.759-3.239 7.465-6.588 11.045-10.168z"/><path d="m364.018 331.502-183.519-183.519c-37.526 60.267-36.698 133.008 6.907 176.613s116.344 44.432 176.612 6.906z"/><path d="m420.751 91.249c-43.605-43.605-116.345-44.431-176.613-6.905l183.517 183.517c37.527-60.267 36.701-133.007-6.904-176.612z"/><path d="m467.751 106.861c9.672-13.42 10.984-30.906 4.094-45.491l35.76-35.76c5.861-5.863 5.861-15.352 0-21.215-5.863-5.861-15.352-5.861-21.215 0l-35.76 35.76c-14.584-6.89-32.071-5.577-45.491 4.094 13.407 6.711 26.012 14.974 36.824 25.787s19.077 23.418 25.788 36.825z"/></svg>