<svg id="Capa_1" enable-background="new 0 0 512 512" height="512" viewBox="0 0 512 512" width="512" xmlns="http://www.w3.org/2000/svg"><path d="m497 451h-16v-30c-22.114 0-41.25-12.153-51.656-30h-53.344c-8.291 0-15-6.709-15-15s6.709-15 15-15h45v-90c-84.921 0-168.256 0-241.749 0 19.532-19.08 31.749-45.608 31.749-75 0-41.353-33.647-75-75-75-73.649 0-73.473 71.995-75 75 0 24.814 20.186 45 45 45s45-20.186 45-45c0-8.291-6.709-15-15-15s-15 6.709-15 15c0 8.276-6.724 15-15 15s-15-6.724-15-15c0-24.814 20.186-45 45-45s45 20.186 45 45c0 41.353-33.647 75-75 75-4.484 0-95.34 0-91 0-8.291 0-15 6.709-15 15s6.709 15 15 15h15v60h106c8.291 0 15 6.709 15 15s-6.709 15-15 15h-106v60h-15c-8.291 0-15 6.709-15 15s6.709 15 15 15h482c8.291 0 15-6.709 15-15s-6.709-15-15-15zm-241-30c-24.814 0-45-20.186-45-45s20.186-45 45-45 45 20.186 45 45-20.186 45-45 45z"/><path d="m256 361c-8.276 0-15 6.724-15 15s6.724 15 15 15 15-6.724 15-15-6.724-15-15-15z"/><path d="m421 61c0-16.538-13.462-30-30-30s-30 13.462-30 30v15h60z"/><path d="m419.484 106h-57.328l28.484 51.89c14.922-13.317 25.365-31.338 28.844-51.89z"/><path d="m331 181c12.2 0 23.817-2.49 34.437-6.909l-29.672-54.056c-1.614.269-3.077.965-4.765.965-19.406 0-37.277 6.313-51.991 16.798l44.681 44.681c2.401-.62 4.719-1.479 7.31-1.479z"/><path d="m428.31 242.479 44.681-44.681c-14.714-10.485-32.585-16.798-51.991-16.798h-30c-16.538 0-30 13.462-30 30v30h60c2.591 0 4.942.775 7.31 1.479z"/><path d="m449.521 263.69c.705 2.368 1.479 4.719 1.479 7.31v30h61v-30c0-19.406-6.313-37.277-16.798-51.991z"/><path d="m451 361c0 16.538 13.462 30 30 30s31-13.462 31-30v-30h-61z"/><path d="m301 211c0-2.591.859-4.909 1.479-7.31l-44.681-44.681c-10.485 14.714-16.798 32.585-16.798 51.991v30h60z"/></svg>