<svg id="Capa_1" enable-background="new 0 0 512 512" height="512" viewBox="0 0 512 512" width="512" xmlns="http://www.w3.org/2000/svg"><path d="m76 364.296c7.98 7.196 18.433 11.704 30 11.704 24.814 0 45-20.186 45-45 0-8.291-6.709-15-15-15s-15 6.709-15 15c0 8.276-6.724 15-15 15s-15-6.724-15-15c0-4.276 0-119.119 0-115.118 25.77 21.96 68.588 52.249 120 64.499v-198.761c-82.657 19.695-143.221 86.071-146.177 89.376-2.263 2.528-3.823 6.406-3.823 10.004 0 5.733 0 156.237 0 150 0 8.276-6.724 15-15 15s-16-6.724-16-15c0-8.291-6.709-15-15-15s-15 6.709-15 15c0 24.814 21.186 45 46 45 11.567 0 22.02-4.508 30-11.704zm90-198.296c8.284 0 15 6.714 15 15 0 8.284-6.716 15-15 15s-15-6.716-15-15c0-8.286 6.716-15 15-15z"/><path d="m256 76c-5.07 0-10.04.385-15 .791 0 5.442 0 317.241 0 314.209 0 8.276-6.724 15-15 15s-15-6.724-15-15c0-8.291-6.709-15-15-15s-15 6.709-15 15c0 24.814 20.186 45 45 45 11.567 0 22.02-4.508 30-11.704 7.98 7.196 18.433 11.704 30 11.704 24.814 0 45-20.186 45-45 0-8.291-6.709-15-15-15s-15 6.709-15 15c0 8.276-6.724 15-15 15s-15-6.724-15-15c0-10.997 0-295.587 0-314.209-4.96-.406-9.93-.791-15-.791z"/><path d="m497 316c-8.291 0-15 6.709-15 15 0 8.276-7.724 15-16 15s-15-6.724-15-15c0-24.188 0-153.082 0-150 0-3.673-1.611-7.533-3.823-10.005-2.179-2.437-35.638-39.23-86.177-66.299v152.607c24.642-13.198 45.125-28.665 60-41.378 0 9.983 0 118.98 0 115.074 0 8.276-6.724 15-15 15s-15-6.724-15-15c0-8.291-6.709-15-15-15s-15 6.709-15 15c0 24.814 20.186 45 45 45 11.567 0 22.02-4.508 30-11.704 7.98 7.196 18.433 11.704 30 11.704 24.814 0 46-20.186 46-45 0-8.29-6.709-14.999-15-14.999z"/><path d="m331 90.872c-9.589-3.721-19.645-6.786-30-9.252v198.76c10.355-2.466 20.411-5.532 30-9.252z"/></svg>