<svg id="Capa_1" enable-background="new 0 0 512 512" height="512" viewBox="0 0 512 512" width="512" xmlns="http://www.w3.org/2000/svg"><path d="m32.582 171.709c3.649 7.319 12.612 10.441 20.127 6.709l11.884-5.938c.427 2.534.639 4.938 1.148 7.52h140.519c.509-2.582.721-4.986 1.148-7.52l11.884 5.938c7.524 3.735 16.481.602 20.127-6.709 3.706-7.412.703-16.421-6.709-20.127l-22.015-11.003c.053-1.829.305-3.785.305-5.579 0-5.46-.897-10.17-1.342-15.269-18.957 18.686-44.938 30.269-73.658 30.269s-54.701-11.583-73.658-30.269c-.444 5.099-1.342 9.809-1.342 15.269 0 1.794.253 3.75.306 5.579l-22.015 11.003c-7.412 3.706-10.415 12.715-6.709 20.127z"/><path d="m201.882 80.079c-17.767-51.931-55.886-76.534-57.986-77.838-4.834-2.988-10.957-2.988-15.791 0-2.1 1.304-40.219 25.908-57.986 77.838 12.642 23.626 37.267 39.921 65.881 39.921s53.24-16.295 65.882-39.921zm-80.882-5.079c0-8.286 6.716-15 15-15s15 6.714 15 15c0 8.284-6.716 15-15 15s-15-6.716-15-15z"/><path d="m294.321 152.52c-6.943-4.614-16.216-2.739-20.801 4.16-4.6 6.899-2.739 16.201 4.16 20.801l3.779 2.52h189.082l3.779-2.52c6.899-4.6 8.76-13.901 4.16-20.801s-13.887-8.774-20.801-4.16l-10.204 6.802c-9.518-52.147-37.018-94.113-51.379-113.207l20.51-20.51c5.859-5.859 5.859-15.352 0-21.211s-15.352-5.859-21.211 0l-19.395 19.395-19.394-19.394c-5.859-5.859-15.352-5.859-21.211 0s-5.859 15.352 0 21.211l20.51 20.51c-14.361 19.094-41.862 61.06-51.379 113.207z"/><path d="m256 300c57.891 0 105-33.647 105-75v-15h-210v15c0 41.353 47.11 75 105 75z"/><path d="m466 210h-75v15c0 57.9-60.601 106-135 106s-135-48.1-135-106v-15h-75c-8.401 0-15 6.599-15 15 0 8.399 6.599 15 15 15h18l57.301 260.3c1.5 6.899 7.8 11.7 14.7 11.7h240c6.899 0 13.2-4.801 14.7-11.7l57.3-260.3h17.999c8.401 0 15-6.601 15-15 0-8.401-6.599-15-15-15z"/></svg>