<svg id="Capa_1" enable-background="new 0 0 512 512" height="512" viewBox="0 0 512 512" width="512" xmlns="http://www.w3.org/2000/svg"><path d="m35.395 266.605 30.075 30.075c-2.776 16.757-4.47 33.35-4.47 49.32 0 11.816 1.084 22.61 2.637 32.908 24.763-29.074 61.181-47.908 102.363-47.908s77.6 18.834 102.363 47.908c1.553-10.298 2.637-21.092 2.637-32.908 0-15.97-1.694-32.563-4.47-49.319l30.075-30.075c5.859-5.859 5.859-15.352 0-21.211s-15.352-5.859-21.211 0l-16.26 16.26c-7.051-28.109-16.467-55.757-26.505-81.074l33.975-33.975c5.859-5.859 5.859-15.352 0-21.211s-15.352-5.859-21.211 0l-25.272 25.272c-20.359-46.223-39.465-79.323-41.173-82.24-5.391-9.199-20.508-9.199-25.898 0-1.708 2.917-20.814 36.017-41.173 82.24l-25.272-25.272c-5.859-5.859-15.352-5.859-21.211 0s-5.859 15.352 0 21.211l33.975 33.975c-10.038 25.316-19.453 52.965-26.505 81.074l-16.26-16.26c-5.859-5.859-15.352-5.859-21.211 0s-5.858 15.351.002 21.21zm98.789-42.421c17.549-17.549 46.084-17.549 63.633 0s17.549 46.084 0 63.633c-5.859 5.859-15.352 5.859-21.211 0s-5.859-15.352 0-21.211c5.845-5.845 5.845-15.366 0-21.211-5.859-5.859-15.352-5.859-21.211 0-5.845 5.845-5.845 15.366 0 21.211 5.859 5.859 5.859 15.352 0 21.211s-15.352 5.859-21.211 0c-17.549-17.549-17.549-46.085 0-63.633z"/><path d="m331 15v46h45c8.291 0 15 6.709 15 15s-6.709 15-15 15h-45v30h75c8.291 0 15 6.709 15 15s-6.709 15-15 15h-75v30h45c8.291 0 15 6.709 15 15s-6.709 15-15 15h-45v30h75c8.291 0 15 6.709 15 15s-6.709 15-15 15h-75v30h45c8.291 0 15 6.709 15 15s-6.709 15-15 15h-45v30h75c8.291 0 15 6.709 15 15s-6.709 15-15 15h-75v30h45c8.291 0 15 6.709 15 15s-6.709 15-15 15h-45v46c0 8.291 6.709 15 15 15h120c8.291 0 15-6.709 15-15v-482c0-8.291-6.709-15-15-15h-120c-8.291 0-15 6.709-15 15z"/><path d="m73.515 417.351c25.992 68.425 84.025 92.49 87.182 93.682 1.714.645 3.501.967 5.303.967s3.589-.322 5.303-.967c3.157-1.192 61.19-25.258 87.182-93.682-17.619-33.329-52.24-56.351-92.485-56.351s-74.866 23.022-92.485 56.351zm62.485 3.649c-8.284 0-15-6.716-15-15 0-8.286 6.716-15 15-15s15 6.714 15 15c0 8.284-6.716 15-15 15z"/><path d="m91 15c0 22.416 10.087 43.336 25.728 57.091 5.81-10.858 9.699-17.56 10.439-18.825 7.852-13.418 22.734-21.738 38.833-21.738s30.981 8.32 38.833 21.738c.74 1.265 4.629 7.967 10.439 18.825 15.641-13.755 25.728-34.675 25.728-57.091 0-8.291-6.709-15-15-15h-120c-8.291 0-15 6.709-15 15z"/></svg>