<svg id="Capa_1" enable-background="new 0 0 512.068 512.068" height="512" viewBox="0 0 512.068 512.068" width="512" xmlns="http://www.w3.org/2000/svg"><path d="m27.668 248.633c-4.799-6.899-14.099-8.699-21-4.199-6.899 4.799-8.699 14.099-4.199 21l21.299 32.098c7.8-7.2 16.501-12.599 26.1-15.899z"/><path d="m507.674 25.64c5.859-5.859 5.859-15.352 0-21.211-5.859-5.859-15.352-5.859-21.211 0l-18.153 18.153c-28.799-18.413-69.582-15.287-94.274 9.43l-31.822 31.822-10.614-10.611c-5.859-5.859-15.352-5.859-21.211 0s-5.859 15.352 0 21.211l10.615 10.611-42.426 42.426-10.611-10.615c-5.859-5.859-15.352-5.859-21.211 0s-5.859 15.352 0 21.211l10.611 10.615-42.433 42.433-10.615-10.611c-5.859-5.859-15.352-5.859-21.211 0s-5.859 15.352 0 21.211l10.615 10.611-77.723 77.722c-19.933-13.03-44.319-16.346-66.132-8.414l37.8 56.999c4.501 6.901 2.701 16.201-4.199 21-8.236 4.572-16.487 2.12-21-4.199l-38.701-57.902c-.599.3-1.199.901-1.8 1.501-29.099 29.399-29.099 77.098 0 106.199 12.05 12.05 27.147 18.787 42.768 20.922l-42.724 42.726c-5.859 5.859-5.859 15.352 0 21.211s15.352 5.859 21.211 0c7.943-7.943 309.95-309.95 408.846-408.846v224.347c-17.602 8.095-30 29.881-30 56.442s12.398 48.347 30 56.442v33.558c0 16.538-13.462 30-30 30s-30-13.462-30-30v-8.789l4.395 4.395c5.859 5.859 15.352 5.859 21.211 0s5.859-15.352 0-21.211l-30-30c-4.277-4.277-10.693-5.581-16.348-3.252-5.61 2.314-9.258 7.793-9.258 13.857v45c0 33.091 26.909 60 60 60s60-26.909 60-60v-33.558c17.602-8.095 30-29.881 30-56.442s-12.398-48.347-30-56.442v-254.347zm-358.666 316.243c-1.498-10.902-5.096-21.564-11.332-31.089l77.26-77.26 21.213 21.209zm108.352-108.351-21.213-21.209 42.429-42.429 21.209 21.213zm63.636-63.636-21.209-21.213 42.429-42.429 21.213 21.209zm63.644-63.644-21.213-21.209 31.82-31.82c13.281-13.281 34.113-15.829 50.771-8.35z"/></svg>